<?xml version="1.0" encoding="UTF-8"?>
<!DOCTYPE svg PUBLIC "-//W3C//DTD SVG 1.1//EN" "http://www.w3.org/Graphics/SVG/1.1/DTD/svg11.dtd">
<!-- Creator: CorelDRAW -->
<svg xmlns="http://www.w3.org/2000/svg" xml:space="preserve" width="10in" height="10in" version="1.1" style="shape-rendering:geometricPrecision; text-rendering:geometricPrecision; image-rendering:optimizeQuality; fill-rule:evenodd; clip-rule:evenodd"
viewBox="0 0 10000 10000"
 xmlns:xlink="http://www.w3.org/1999/xlink"
 xmlns:xodm="http://www.corel.com/coreldraw/odm/2003">
 <defs>
  <style type="text/css">
   <![CDATA[
    .str0 {stroke:#201F1F;stroke-width:6.94;stroke-miterlimit:2.61313}
    .fil0 {fill:none}
    .fil5 {fill:#192832}
    .fil4 {fill:#201F1F}
    .fil9 {fill:#3F3436}
    .fil15 {fill:#464041}
    .fil10 {fill:#C77447}
    .fil7 {fill:#C7773D}
    .fil8 {fill:#DD814F}
    .fil6 {fill:#DD8444}
    .fil14 {fill:#E2E6F4}
    .fil1 {fill:#EAD2B8}
    .fil2 {fill:#FBFBFB}
    .fil12 {fill:white}
    .fil3 {fill:#201F1F;fill-rule:nonzero}
    .fil11 {fill:#3F3436;fill-rule:nonzero}
    .fil13 {fill:#464041;fill-rule:nonzero}
   ]]>
  </style>
 </defs>
 <g id="Layer_x0020_1">
  <metadata id="CorelCorpID_0Corel-Layer"/>
  <g id="_992192576">
   <rect class="fil0" width="10000" height="10000"/>
   <g>
    <path class="fil1" d="M10000 3346.48c-2523.22,880.69 -2889.82,3053.44 -5982.56,2010.64 -2345.89,-790.98 -3348.21,3304.32 -4017.44,3349.04l0 1293.84 10000 0 0 -6653.52z"/>
    <rect class="fil2" x="9183.86" y="9239.23" width="220.05" height="156.75"/>
    <path class="fil3" d="M9403.91 9404.83l-220.05 0 -8.86 0 0 -8.86 0 -156.75 0 -8.86 8.86 0 220.05 0 8.86 0 0 8.86 0 156.75 0 8.86 -8.86 0zm-211.19 -17.72l202.33 0 0 -139.04 -202.33 0 0 139.04z"/>
    <rect class="fil2" x="7871.59" y="9249.53" width="220.05" height="156.75"/>
    <path class="fil3" d="M8091.64 9415.14l-220.05 0 -8.86 0 0 -8.86 0 -156.75 0 -8.86 8.86 0 220.05 0 8.86 0 0 8.86 0 156.75 0 8.86 -8.86 0zm-211.2 -17.72l202.34 0 0 -139.04 -202.34 0 0 139.04z"/>
    <polygon class="fil4" points="7836.6,9275.95 7898.58,5681.13 8978.8,5681.13 9435.84,9275.95 9168.72,9275.95 8429.83,6416.04 8121.85,9275.95 "/>
    <polygon class="fil4" points="9427.58,9210.96 9435.84,9275.95 9168.72,9275.95 9151.93,9210.96 "/>
    <path class="fil5" d="M8286.88 3011.83c22.13,-27.18 55.86,-44.55 93.65,-44.55 49.46,0 91.96,29.76 110.61,72.34 10.89,-5.17 23.08,-8.07 35.94,-8.07 27.56,0 52.02,13.3 67.31,33.83 7.88,-1.62 16.04,-2.47 24.41,-2.47 66.65,0 120.7,54.04 120.7,120.7 0,3.72 -0.18,7.41 -0.51,11.04 53.3,12.53 92.99,60.38 92.99,117.5 0,45.38 -25.06,84.91 -62.08,105.52 22.53,17.8 36.99,45.36 36.99,76.3 0,51.57 -40.16,93.74 -90.91,96.98 6,11.56 9.4,24.69 9.4,38.61 0,46.31 -37.54,83.86 -83.86,83.86 -17.11,0 -33.03,-5.14 -46.3,-13.94 -1.3,37.42 -24.64,67.23 -53.23,67.23 -5.33,0 -10.48,-1.04 -15.33,-2.96 -13.99,32.19 -46.07,54.69 -83.41,54.69 -40.05,0 -74.06,-25.9 -86.17,-61.87 -16.35,24.09 -43.97,39.93 -75.28,39.93 -45.35,0 -82.94,-33.2 -89.79,-76.62 -7.37,1.93 -15.09,2.95 -23.06,2.95 -50.21,0 -90.91,-40.7 -90.91,-90.91 0,-6.48 0.68,-12.8 1.97,-18.89 -28.26,-15.42 -47.43,-45.4 -47.43,-79.86 0,-22.84 8.43,-43.71 22.33,-59.68 -31.65,-14.22 -53.68,-46.02 -53.68,-82.96 0,-30.74 15.26,-57.93 38.63,-74.38 -47.85,-21.46 -82.53,-69.16 -51.18,-160.74 43.16,-126.07 209.73,-143.51 298.23,-143.55z"/>
    <path class="fil2" d="M8670.43 3996.73l0 -396.7c210.83,-37.49 70.06,-295.4 12.85,-144.55l0 34.22 0 -212.5c0,-122.34 -402.92,-32.12 -560.53,-32.12l0 513.94c0,0 -1.6,162.21 194.33,85.12l0 162.59 353.35 -10.01z"/>
    <path class="fil3" d="M8661.57 4040.04l0 -440 0 -7.41 7.33 -1.31c64.85,-11.53 94.1,-44.66 102.24,-79.08 5.87,-24.87 1.02,-50.43 -9.27,-69 -9.45,-17.08 -23.22,-27.93 -36.49,-25.5 -11.41,2.09 -23.29,13.81 -33.26,39.33l0 32.64 -17.72 0 0 -34.22 0 -178.28c0,-42.61 -62.01,-55.31 -145.72,-55.31 -70.65,0 -155.91,9.36 -234.08,17.94 -62.39,6.85 -120.33,13.21 -163.01,14.02l0 505.18c0,0.42 -1.5,149.19 182.26,76.89l12.07 -4.75 0 12.98 0 205.4 335.63 -9.51zm17.71 -432.7l0 441.28 0 8.58 -8.61 0.24 -353.35 10.01 -9.1 0.26 0 -9.08 0 -201.72c-195.93,70.47 -194.33,-97.39 -194.33,-97.87l0 -513.95 0 -8.86 8.86 0c42.8,0 103.87,-6.7 170,-13.96 78.81,-8.64 164.76,-18.08 235.95,-18.08 93.89,0 163.44,16.76 163.44,73.02l0 143.32c9.32,-11.91 19.65,-18.24 30.08,-20.15 21.42,-3.93 42.06,10.73 55.09,34.28 12.21,22.05 17.99,52.28 11.07,81.59 -9.27,39.2 -40.78,76.81 -109.08,91.08z"/>
    <path class="fil5" d="M8503.72 3097.92c0,0 -312.91,-66.02 -378.59,86.65 -65.69,152.66 128.42,158.98 191.86,147.16 179.09,-33.35 196.6,-100.44 186.74,-233.81z"/>
    <path class="fil6" d="M9026.85 5813.63c0,0 -128.31,-183.72 4.78,-1098.01l75.22 179.38 399.28 -214.1 -293.08 -500.73c-28.02,-47.89 -17.67,-45.87 -68.81,-65.63l-469.15 -181.26c-31.2,39.91 -101.27,67.74 -182.73,67.74 -81.61,0 -151.79,-27.93 -182.91,-67.96l-433.13 116.06c-55.91,14.95 -42.47,9.31 -68.04,60.82l-337.61 679.46 329.84 138.88 63.65 -219.89c0,0 -23.15,949.01 11.57,1105.24l1151.1 0z"/>
    <path class="fil7" d="M9089.87 4618.93c-0.22,0.03 -65.31,10.38 -58.25,96.7l0 0 0 0c-5.45,-66.6 61.34,-75.71 61.49,-75.73l-3.24 -20.96z"/>
    <path class="fil7" d="M8743.44 3959.69l-68.35 -26.41c-31.19,39.91 -101.27,67.74 -182.73,67.74 -81.61,0 -151.8,-27.93 -182.91,-67.96l-74.43 19.94c24.03,69.28 129.3,121.46 255.52,121.46 122.12,0 224.61,-48.84 252.91,-114.76z"/>
    <path class="fil2" d="M7738.74 4606.21l504.96 0c26.63,0 39.44,23.4 48.42,48.43l265.64 740.16c8.98,25.03 -21.83,48.43 -48.42,48.43l-504.96 0c-26.59,0 -39.44,-23.36 -48.43,-48.43l-265.64 -740.16c-8.99,-25.07 21.79,-48.43 48.43,-48.43z"/>
    <path class="fil3" d="M7738.74 4597.35l504.96 0c16.28,0 28.29,7.09 37.54,17.94 8.48,9.95 14.39,22.99 19.19,36.36l265.63 740.16c1.46,4.07 2.15,8.07 2.15,11.94 0,10.33 -4.62,19.9 -11.91,27.74 -6.77,7.28 -16.01,13.16 -25.89,16.71 -6.89,2.47 -14.12,3.86 -21.07,3.86l-504.96 0c-16.26,0 -28.26,-7.07 -37.52,-17.93 -8.48,-9.94 -14.41,-22.98 -19.2,-36.38l-265.64 -740.16 -0.03 0c-1.44,-4.04 -2.12,-8.04 -2.12,-11.97 0,-10.34 4.61,-19.9 11.9,-27.74 6.77,-7.29 15.99,-13.15 25.88,-16.69 6.9,-2.47 14.14,-3.86 21.1,-3.86zm504.96 17.72l-504.96 0c-5.04,0 -10.23,0.99 -15.15,2.75 -7.28,2.61 -14.02,6.86 -18.9,12.12 -4.35,4.69 -7.11,10.14 -7.11,15.7 0,1.96 0.34,3.98 1.07,6.02l-0.03 0.01 265.63 740.15c4.18,11.67 9.19,22.85 16.02,30.84 6.04,7.08 13.77,11.7 24.11,11.7l504.96 0c5.02,0 10.2,-0.99 15.11,-2.75 7.28,-2.61 14.02,-6.88 18.91,-12.14 4.37,-4.7 7.13,-10.15 7.13,-15.7 0,-2.01 -0.33,-4.03 -1.04,-6l-265.64 -740.16c-4.18,-11.64 -9.18,-22.83 -16,-30.83 -6.04,-7.09 -13.77,-11.71 -24.12,-11.71z"/>
    <path class="fil2" d="M7863.83 5375.14l118.47 17.94c0,0 46.12,3.65 39.79,-72.31l0 -68.72c0,0 3.62,-41.6 -94.03,-16.27 0,0 -50.63,-70.53 -115.73,3.62l-95.84 0c-50.47,0 43.3,-199.17 72.74,-309.15l-14.82 -41.3 -262.27 -126.98 -73.93 399.86c-26.32,142.3 -124.57,373.63 149.88,298.15 22.33,-6.14 42.85,-11.74 61.63,-16.83 8.8,-2.38 214.08,-68.03 214.1,-68.02z"/>
    <path class="fil3" d="M7865.15 5366.39l118.09 17.89c3.12,0.11 35.24,-0.29 30.04,-62.77l-0.04 -0.73 0 -68.72 0.04 -0.38c0,-0.08 2.87,-29.62 -83,-7.35l-5.78 1.5 -3.56 -4.82c-0.12,-0.17 -44.2,-61.58 -101.96,4.2l-2.67 3.05 -3.97 0 -95.84 0c-16.63,0 -23.51,-11.69 -23.51,-31.58 0,-35.45 24.31,-103.3 48.57,-171.01l0.03 0c14.66,-40.92 29.3,-81.8 38.41,-115.08l-12.65 -35.24 -248.61 -120.37 -71.82 388.45c-3.92,21.22 -9.24,43.63 -14.69,66.69 -15.44,65.25 -32.16,135.88 -19.31,182.6 12.91,46.94 58.48,70.23 172.89,38.77l32.15 -8.81 0 -0.04 29.48 -8.02c8.05,-2.18 159.1,-50.43 202.27,-64.22l11.49 -3.67 3.98 -0.35zm115.84 35.45l-116.51 -17.65 -9.48 3.02c-43.57,13.92 -195.94,62.6 -202.96,64.5l-29.49 8.02 -0.01 -0.04 -32.14 8.81c-127.28,35 -178.89,5.78 -194.54,-51.15 -14.07,-51.13 3.18,-123.95 19.11,-191.24 5.5,-23.24 10.85,-45.84 14.55,-65.86l73.93 -399.86 2.11 -11.4 10.41 5.04 262.27 126.98 4.46 4.98 14.82 41.3 0.24 5.26c-9.07,33.88 -24.33,76.46 -39.59,119.07l0.02 0.01c-23.73,66.26 -47.52,132.65 -47.52,165.06 0,8.73 1.69,13.87 5.8,13.87l91.95 0c60.22,-65.56 109.21,-20.26 122.91,-4.69 98.65,-23.93 99.72,21.53 99.57,26.2l0.02 0 0 68.49c6.94,85.8 -49.18,81.37 -49.33,81.36l-0.62 -0.07z"/>
    <polygon class="fil7" points="7515.05,4700.11 7470.68,4789.4 7775.35,4917.68 7732.46,4798.19 "/>
    <polygon class="fil7" points="8006.79,4951.74 8197.02,4951.74 8241.29,5097.69 8051.07,5097.69 "/>
    <path class="fil2" d="M9396.43 4691.45l141.05 278.48c0,0 141.04,296.57 -137.44,311.04 -278.48,14.47 -831.83,115.73 -831.83,115.73 0,0 -50.63,-50.63 -122.96,9.05 -72.33,59.67 -202.54,-164.56 -9.04,-189.88 0,0 101.27,-14.47 159.13,66.91l613.03 -220.62c0,0 81.37,-3.62 36.16,-81.37 -45.2,-77.76 -95.84,-150.09 -95.84,-150.09l247.74 -139.24z"/>
    <path class="fil3" d="M9404.31 4687.48l141.05 278.48 0.14 0.24c0.41,0.88 146.69,308.44 -145.02,323.59 -277.96,14.44 -829.11,115.31 -830.69,115.59l-4.46 0.82 -3.25 -3.14c-0.13,-0.12 -45.06,-45.1 -111.24,9.49 -21.82,18 -47.6,14.7 -70.27,-0.81 -18.32,-12.54 -34.59,-33.37 -44.44,-57.01 -9.93,-23.8 -13.48,-50.68 -6.31,-75.16 10.17,-34.69 41.29,-64.1 105.24,-72.46l0.07 -0.03c0.3,-0.04 101.86,-14.54 163.38,65.18l606.87 -218.41 2.59 -0.52c0.18,-0 66.78,-2.97 28.9,-68.12 -45.09,-77.56 -95.28,-149.27 -95.42,-149.47l-5.59 -7.98 8.5 -4.78 247.73 -139.24 8.04 -4.51 4.17 8.25zm125.15 286.19l-136.74 -269.98 -231.26 129.98c14.37,20.95 54.31,80.09 90.71,142.7 48.8,83.92 -30.29,93.56 -41.99,94.52l-611.87 220.2 -6.29 2.27 -3.88 -5.45c-54.73,-76.96 -150.59,-63.28 -150.87,-63.24l-0.01 -0.02c-55.54,7.28 -82.18,31.48 -90.49,59.86 -5.95,20.33 -2.81,43.07 5.69,63.47 8.57,20.55 22.51,38.53 38.08,49.19 16.3,11.16 34.42,13.9 49.09,1.79 67.06,-55.32 117.73,-22.5 131.16,-11.67 51.16,-9.28 563.53,-101.34 828.79,-115.12 265.23,-13.78 130.24,-297.67 129.86,-298.48l0.02 -0.01z"/>
    <polygon class="fil7" points="9071.8,4811.43 9106.85,4895 9506.13,4680.9 9453.53,4591.04 "/>
    <path class="fil7" d="M8985.33 5658.85c-3.12,-22.47 -5.92,-47.92 -8.2,-76.64l-1117.65 0c0.7,27.08 1.54,52.74 2.53,76.64l1123.32 0z"/>
    <path class="fil7" d="M9026.85 5813.63c0,0 -13.49,-19.37 -27.19,-76.63l-1133.27 0c2.51,33.39 5.59,59.69 9.35,76.63l1151.1 0z"/>
    <path class="fil4" d="M8125.36 9379.86l0 283.33 -695.06 0c-51.12,-92.95 66.28,-110.04 126.37,-131.77 107.39,-38.86 243.92,-119.27 281.19,-151.56l287.5 0z"/>
    <path class="fil4" d="M9432.22 9379.86l0 283.33 -503.61 0c-37.04,-92.95 48.03,-110.04 91.56,-131.77 77.81,-38.85 107.56,-115.81 134.57,-148.1l277.48 -3.46z"/>
    <path class="fil3" d="M8560.48 3445.38c3.34,3.55 8.93,3.72 12.48,0.37 3.55,-3.34 3.72,-8.93 0.38,-12.48 -0.19,-0.2 -70.42,-75.01 -114.67,1.63 -2.44,4.22 -1,9.63 3.22,12.07 4.22,2.44 9.63,1 12.07,-3.22 32.36,-56.04 86.37,1.46 86.52,1.63z"/>
    <path class="fil3" d="M8280.07 3443.36c3.51,3.38 9.11,3.27 12.48,-0.24 3.38,-3.52 3.28,-9.11 -0.24,-12.49 -0.16,-0.15 -56.44,-56.43 -112.97,0.11 -3.46,3.46 -3.46,9.06 0,12.52 3.45,3.46 9.06,3.46 12.52,0 44.04,-44.04 88.09,-0.02 88.21,0.11z"/>
    <path class="fil3" d="M8246.13 3487.37c-5.56,0 -10.6,2.24 -14.22,5.86l0 0 0.02 0.02 -0.4 0.37c-3.39,3.6 -5.48,8.47 -5.48,13.83 0,5.57 2.24,10.61 5.86,14.23l0.02 -0.02 0 0 0.08 0.08c3.61,3.58 8.62,5.8 14.12,5.8 5.56,0 10.58,-2.25 14.21,-5.88 3.63,-3.63 5.88,-8.66 5.88,-14.21 0,-5.55 -2.25,-10.58 -5.88,-14.2l-0.35 -0.37c-3.59,-3.42 -8.48,-5.51 -13.87,-5.51zm-20.46 -0.38l-6.23 -6.26c6.84,-6.83 16.29,-11.07 26.69,-11.07 10.15,0 19.4,4.04 26.2,10.58l0.54 0.49c6.84,6.84 11.08,16.3 11.08,26.72 0,10.43 -4.24,19.89 -11.08,26.73 -6.84,6.84 -16.3,11.08 -26.73,11.08 -10.3,0 -19.65,-4.14 -26.47,-10.83l-0.26 -0.25 6.26 -6.26 -6.26 6.23c-6.83,-6.84 -11.07,-16.3 -11.07,-26.7 0,-10.14 4.03,-19.36 10.56,-26.16l0.52 -0.57 6.26 6.26z"/>
    <path class="fil3" d="M8394.81 3485.67c2.23,-4.33 0.53,-9.67 -3.81,-11.9 -4.33,-2.23 -9.67,-0.53 -11.9,3.81l-53.53 103.66c-1.85,3.57 -4.61,8.17 -7.7,13.31l-0.02 -0.01 -0 0.01 -0 -0.01 -0.19 0.33c-10.35,17.2 -24.02,40.04 -24.02,57.89 0,16.61 9.35,28.32 36.66,28.32l35.09 0c4.89,0 8.86,-3.97 8.86,-8.86 0,-4.89 -3.97,-8.86 -8.86,-8.86l-35.09 0c-14.11,0 -18.94,-4.39 -18.94,-10.6 0,-13.01 12.22,-33.4 21.47,-48.78l0.2 -0.31 -7.59 -4.56 7.57 4.53c3.3,-5.47 6.24,-10.37 8.27,-14.3l53.53 -103.66z"/>
    <path class="fil3" d="M8448.81 3678.76c0.59,-4.85 -2.86,-9.26 -7.71,-9.85 -4.85,-0.59 -9.26,2.86 -9.85,7.71 -0.03,0.22 -9.05,79.06 -89.54,52.87 -4.65,-1.51 -9.64,1.03 -11.14,5.67 -1.51,4.64 1.03,9.63 5.67,11.14 101.07,32.89 112.54,-67.26 112.57,-67.55z"/>
    <path class="fil3" d="M8496.44 3487.37c-5.56,0 -10.6,2.24 -14.22,5.86l0 0 0.01 0.02 -0.39 0.37c-3.39,3.6 -5.48,8.47 -5.48,13.83 0,5.57 2.24,10.61 5.86,14.23l0.01 -0.02 0.01 0 0.08 0.08c3.61,3.58 8.62,5.8 14.12,5.8 5.56,0 10.58,-2.25 14.21,-5.88 3.63,-3.63 5.88,-8.66 5.88,-14.21 0,-5.55 -2.25,-10.58 -5.88,-14.2l-0.35 -0.37c-3.6,-3.42 -8.48,-5.51 -13.87,-5.51zm-20.46 -0.38l-6.23 -6.26c6.84,-6.83 16.29,-11.07 26.69,-11.07 10.15,0 19.4,4.04 26.2,10.58l0.53 0.49c6.84,6.84 11.08,16.3 11.08,26.72 0,10.43 -4.24,19.89 -11.08,26.73 -6.84,6.84 -16.3,11.08 -26.73,11.08 -10.3,0 -19.65,-4.14 -26.47,-10.83l-0.26 -0.25 6.26 -6.26 -6.26 6.23c-6.83,-6.84 -11.07,-16.3 -11.07,-26.7 0,-10.14 4.03,-19.36 10.56,-26.16l0.52 -0.57 6.26 6.26z"/>
    <path class="fil8" d="M3705.08 7990.29c85.38,12.94 168.96,39.01 247.66,77.3l-37.52 100.59 65.72 -86.24c45.08,23.98 88.38,52.07 129.28,84.08l-89.76 240.65 146.52 -192.25c58.48,54.26 110.75,117.4 154.67,188.79l-124.65 334.2 178.17 -233.78c20.8,45.63 37.47,92.21 50.13,139.25l-71.4 191.42 88.26 -115.81c28.55,160.57 11.86,323.46 -45.42,469.77 -111.58,-16.91 -220.09,-56.25 -318.62,-115.97l100.05 -12.84 -159.96 -26.9c-41.66,-30.15 -81.09,-64.22 -117.67,-102.03l165.65 -21.26 -216.88 -36.46c-18.87,-23.2 -36.75,-47.54 -53.55,-73.01l113.85 -14.61 -137.44 -23.11c-1.74,-2.94 -3.47,-5.91 -5.19,-8.88 -11.85,-20.52 -22.78,-41.3 -32.84,-62.3l226.82 -29.11 -257.76 -43.34c-8.05,-21.38 -15.22,-42.92 -21.54,-64.57l181.88 -23.34 -196.38 -33.02c-10.16,-45.64 -16.61,-91.59 -19.46,-137.41l221.08 -28.37 -222.71 -37.45c1.32,-104.92 21.43,-208.04 59,-304.02z"/>
    <path class="fil9" d="M4397.7 9185.78c-0.32,0.83 -0.64,1.66 -0.96,2.49 -1.04,-0.16 -2.07,-0.32 -3.11,-0.48 -366.13,-503.81 -628.27,-1113.17 -629.03,-1114.93l4.12 -1.79c0.76,1.77 262.93,611.19 628.99,1114.71z"/>
    <path class="fil10" d="M5004.19 7990.29c-85.38,12.94 -168.96,39.01 -247.66,77.3l37.52 100.59 -65.72 -86.24c-45.08,23.98 -88.38,52.07 -129.28,84.08l89.76 240.65 -146.52 -192.25c-58.48,54.26 -110.75,117.4 -154.67,188.79l124.66 334.2 -178.17 -233.78c-20.8,45.63 -37.46,92.21 -50.13,139.25l71.4 191.42 -88.26 -115.81c-28.55,160.57 -11.86,323.46 45.42,469.77 111.57,-16.91 220.09,-56.25 318.62,-115.97l-100.05 -12.84 159.96 -26.9c41.67,-30.15 81.09,-64.22 117.67,-102.03l-165.66 -21.26 216.88 -36.46c18.87,-23.2 36.76,-47.54 53.55,-73.01l-113.85 -14.61 137.44 -23.11c1.74,-2.94 3.48,-5.91 5.19,-8.88 11.85,-20.52 22.78,-41.3 32.84,-62.3l-226.81 -29.11 257.75 -43.34c8.05,-21.38 15.22,-42.92 21.54,-64.57l-181.89 -23.34 196.38 -33.02c10.16,-45.64 16.61,-91.59 19.46,-137.41l-221.08 -28.37 222.72 -37.45c-1.33,-104.92 -21.43,-208.04 -59,-304.02z"/>
    <path class="fil9" d="M4311.57 9185.78c0.32,0.83 0.64,1.66 0.96,2.49 1.04,-0.16 2.07,-0.32 3.11,-0.48 366.14,-503.81 628.27,-1113.17 629.04,-1114.93l-4.12 -1.79c-0.77,1.77 -262.93,611.19 -628.99,1114.71z"/>
    <path class="fil2" d="M4907.7 9070.54c8.15,38.22 12.48,77.87 12.48,118.52 0,183.81 -87.71,347.11 -223.54,450.41l-684.02 0c-135.83,-103.3 -223.54,-266.6 -223.54,-450.41 0,-40.66 4.33,-80.3 12.48,-118.52l1106.13 0z"/>
    <path class="fil11" d="M4912.55 9069.51c4.14,19.41 7.31,39.24 9.43,59.42 2.09,19.85 3.17,39.92 3.17,60.14 0,90.93 -21.3,176.91 -59.17,253.22 -39.32,79.23 -96.53,148.03 -166.35,201.13l-2.99 1.03 -684.01 0 -2.99 -1.03c-69.81,-53.1 -127.03,-121.9 -166.35,-201.13 -37.87,-76.31 -59.17,-162.29 -59.17,-253.22 0,-20.22 1.07,-40.29 3.17,-60.14 2.12,-20.18 5.29,-40 9.43,-59.42l0.84 -3.94 4.01 0 1106.12 0 4.01 0 0.84 3.94zm-0.42 60.43c-1.94,-18.38 -4.78,-36.54 -8.46,-54.43l-1098.07 0c-3.68,17.88 -6.52,36.05 -8.45,54.43 -2.04,19.33 -3.09,39.07 -3.09,59.13 0,89.39 20.92,173.88 58.12,248.83 38.39,77.36 94.13,144.59 162.1,196.61l680.72 0c67.97,-52.02 123.7,-119.25 162.1,-196.61 37.2,-74.96 58.11,-159.44 58.11,-248.83 0,-20.06 -1.05,-39.8 -3.08,-59.13z"/>
    <polygon class="fil4" points="4965.94,9205.02 3743.33,9205.02 3743.33,9046.45 4965.94,9046.45 "/>
    <rect class="fil12" x="3517.27" y="1944.61" width="3658.26" height="4459.32" rx="184.77" ry="130.65"/>
    <path class="fil13" d="M3702.04 1926.13l3288.72 0c55.91,0 106.73,22.86 143.56,59.69 36.83,36.83 59.69,87.65 59.69,143.56l0 4089.79c0,55.91 -22.86,106.73 -59.69,143.56 -36.83,36.83 -87.65,59.69 -143.56,59.69l-3288.72 0c-55.91,0 -106.73,-22.86 -143.56,-59.69 -36.83,-36.83 -59.69,-87.65 -59.69,-143.56l0 -4089.79c0,-55.91 22.86,-106.73 59.69,-143.56 36.83,-36.83 87.65,-59.69 143.56,-59.69zm3288.72 36.96l-3288.72 0c-45.72,0 -87.29,18.71 -117.43,48.85 -30.15,30.15 -48.86,71.72 -48.86,117.43l0 4089.79c0,45.72 18.71,87.28 48.86,117.43 30.15,30.15 71.72,48.86 117.43,48.86l3288.72 0c45.71,0 87.29,-18.71 117.43,-48.86 30.14,-30.14 48.86,-71.71 48.86,-117.43l0 -4089.79c0,-45.72 -18.72,-87.3 -48.86,-117.43 -30.15,-30.15 -71.72,-48.85 -117.43,-48.85z"/>
    <path class="fil13" d="M5346.4 1202.61c74.93,0 142.98,30.5 192.43,79.84l0.14 0.15 0.15 0.14c49.35,49.46 79.85,117.51 79.85,192.44 0,75.05 -30.52,143.11 -79.84,192.44l0 0.28c-49.32,49.32 -117.47,79.83 -192.72,79.83 -74.94,0 -142.98,-30.5 -192.44,-79.84l-0.14 -0.15 -0.15 -0.14c-49.35,-49.47 -79.84,-117.52 -79.84,-192.43 0,-74.94 30.5,-142.99 79.84,-192.44l0.15 -0.14 0.14 -0.15c49.46,-49.34 117.5,-79.84 192.44,-79.84zm90.01 182.27c-22.85,-22.85 -54.67,-36.99 -90.01,-36.99 -35.35,0 -67.17,14.15 -90.02,36.99l-0.28 0.28c-22.85,22.85 -37,54.67 -37,90.02 0,35.34 14.15,67.16 37,90.01l0.28 0.28c22.85,22.85 54.67,36.99 90.02,36.99 35.17,0 67,-14.25 90.02,-37.27l0.14 0.14c22.94,-23.02 37.13,-54.88 37.13,-90.15 0,-35.35 -14.15,-67.17 -36.99,-90.02l-0.28 -0.28z"/>
    <path class="fil12" d="M4555.3 1927.72l1582.19 0 0 -104.02c0,-148.61 -121.58,-270.18 -270.18,-270.18l-1041.83 0c-148.6,0 -270.18,121.57 -270.18,270.18l0 104.02z"/>
    <path class="fil13" d="M4573.78 1926.13l1545.24 0 0 -85.54c0,-69.2 -28.33,-132.13 -73.95,-177.75 -45.62,-45.62 -108.55,-73.94 -177.75,-73.94l-1041.83 0c-69.21,0 -132.13,28.32 -177.76,73.94 -45.62,45.62 -73.95,108.55 -73.95,177.75l0 85.54zm1563.71 36.96l-1582.19 0 -18.48 0 0 -18.48 0 -104.02c0,-79.4 32.47,-151.57 84.78,-203.88 52.31,-52.31 124.48,-84.78 203.88,-84.78l1041.83 0c79.4,0 151.57,32.47 203.88,84.78 52.31,52.31 84.78,124.48 84.78,203.88l0 104.02 0 18.48 -18.48 0z"/>
    <rect class="fil6" x="3772.07" y="2568.82" width="1176.82" height="1061.72" rx="139.47" ry="154.43"/>
    <rect class="fil14" x="5130.21" y="2876.36" width="1790.52" height="139.07" rx="139.47" ry="213.95"/>
    <rect class="fil15" x="5130.21" y="3183.91" width="1790.52" height="139.07" rx="139.47" ry="213.95"/>
    <rect class="fil15" x="5130.21" y="3491.46" width="1790.52" height="139.07" rx="139.47" ry="213.95"/>
    <rect class="fil15" x="3772.07" y="3799.01" width="3148.65" height="139.07" rx="245.26" ry="213.95"/>
    <rect class="fil15" x="3772.07" y="4106.53" width="3148.65" height="139.07" rx="245.26" ry="213.95"/>
    <rect class="fil15" x="3772.07" y="4414.07" width="3148.65" height="139.07" rx="245.26" ry="213.95"/>
    <rect class="fil15" x="3772.07" y="4721.61" width="3148.65" height="139.07" rx="245.26" ry="213.95"/>
    <rect class="fil15" x="3772.07" y="5029.15" width="3148.65" height="139.07" rx="245.26" ry="213.95"/>
    <rect class="fil15" x="3772.07" y="5336.68" width="3148.65" height="139.07" rx="245.26" ry="213.95"/>
    <rect class="fil15" x="3772.07" y="5644.22" width="3148.65" height="139.07" rx="245.26" ry="213.95"/>
    <rect class="fil15" x="3772.07" y="5951.76" width="3148.65" height="139.07" rx="245.26" ry="213.95"/>
    <rect class="fil15" x="5130.21" y="2876.36" width="1790.52" height="139.07" rx="139.47" ry="213.95"/>
    <rect class="fil15" x="5130.21" y="2568.81" width="1790.52" height="139.07" rx="139.47" ry="213.95"/>
    <rect class="fil15" x="3772.07" y="2261.27" width="2253.46" height="139.07" rx="175.53" ry="213.95"/>
    <ellipse class="fil6" cx="6855.32" cy="2330.8" rx="65.41" ry="69.53"/>
    <ellipse class="fil6" cx="6615.73" cy="2330.8" rx="65.41" ry="69.53"/>
    <ellipse class="fil6" cx="6376.13" cy="2330.8" rx="65.41" ry="69.53"/>
    <polygon class="fil12 str0" points="2860.21,5587.47 2938.66,5511.58 2965.62,5553.2 2906.88,5656.67 "/>
    <path class="fil12 str0" d="M2938.66 5511.58c0,0 18.76,-18.46 49.06,-30.3 23.99,-9.39 56.82,-15.92 87.54,-26.47 17.91,-6.15 30.67,-11.52 32.89,-10.04 3.83,2.47 1.1,20.14 -25.45,31.43 -26.54,11.23 -54.27,30.2 -54.27,30.2l-89.76 5.18z"/>
    <path class="fil12 str0" d="M2931.26 5572.16c0,0 80.87,27.98 153.37,26.74 72.56,-1.3 92.51,-14.48 91.85,-22.19 -0.65,-7.67 -13.7,-3.48 -38.12,-1.67 -20.17,1.52 -40.77,5.35 -40.48,1.79 0.28,-3.57 41.76,-9.06 48.89,-9.51 7.14,-0.44 56.61,-5.86 57.1,-18.2 0.45,-11.78 -34.86,-7.66 -54.11,-5.3l-47.03 -0.27c0.62,-3.6 43.44,-4.18 50.63,-4.54 7.23,-0.38 60.11,-1.52 61.64,-12.89 1.53,-11.37 -10.53,-14.46 -55.82,-12.16l-53.84 0.72c0.76,-10.15 93.73,0.56 96.59,-17.13 1.42,-8.89 -19.55,-9.6 -47.04,-9.27 -28.13,0.43 -75.25,3.91 -99.29,1.41 -77.91,-8.05 -116.87,21.87 -116.87,21.87 0,0 -35.53,32.82 -7.49,60.59z"/>
    <path class="fil12 str0" d="M1517.71 5950.62l0.76 -3.46c-6.75,-1.67 -11.42,-2.81 -11.58,-1.93 -0.43,2.37 4.59,3.74 10.82,5.39zm-1008.08 -13.28c160.09,135.5 772.06,29.26 772.06,29.26l-0.87 -25.11 89.86 -17.96c36.44,27.65 160.72,63.74 168.12,46.06 5.09,-12.16 -9.95,-16.02 -21.09,-18.96l0.76 -3.46c17.38,4.28 48.59,12.06 52.08,-2.26 5.89,-24.18 -57.4,-23.35 -56.61,-28.17 0.19,-1.17 4.53,-0.46 10.98,0.9l-0.45 2.09 0.45 -2.09c20.11,4.22 60.73,14.76 59.52,-5.37 -0.78,-12.98 -36.91,-15.4 -54.34,-18.4l1 -4.55c18.59,1.88 55.7,9.33 52.19,-11.76 -3.05,-18.31 -71.66,-7.36 -119.32,-30.14 -41.11,-19.73 48.85,-44.09 23.41,-73.42 -5.36,-6.13 -20.64,6.38 -45.03,26.26 -19.95,16.25 -47.98,25.1 -80.09,53.85l-84.53 -1.33 -0.43 -12.57c0,0 -373.65,-36.25 -536.56,-87.26 35.27,-64.31 72.45,-141.28 113.56,-225.88 142.69,-293.79 265.02,-593.33 79.87,-580.18 -145.47,10.42 -594.77,902.41 -424.54,990.47zm1021.47 -48.03c-5.71,-0.57 -9.67,-0.63 -10.17,0.83 -0.54,1.6 3.24,2.69 9.18,3.72l1 -4.55z"/>
    <path class="fil12 str0" d="M1595.91 9471.15l0 -559.8 180.37 -6.74 8.72 546.77 1.44 19.72 -1.44 -19.7c-27.08,2.1 -62.95,5.65 -83.36,10.94 -35.77,9.27 26.52,55.65 0,62.27 -26.5,6.62 -55.63,5.31 -71.54,-29 -8.72,-18.85 -23.02,-23.83 -34.19,-24.48z"/>
    <path class="fil12 str0" d="M1109.73 8907.72c0,0 -49.99,329.33 -48.96,564.57 1.02,235.23 166.39,-20.15 166.39,-20.15 0,0 18.19,-490.56 10.74,-577.72 -7.45,-87.16 -128.16,33.3 -128.16,33.3z"/>
    <path class="fil4" d="M1066.5 6210.95c0,0 898.27,-146.22 941.97,248.4 43.69,394.62 -91.61,1326.31 -109.29,1514.39 -37.25,397.27 -61.86,917.08 -75.15,1253.66l-270.86 0c-49.57,-226.91 -98.31,-519.86 -77.48,-726.45 16.37,-162.13 86.11,-527.21 86.11,-527.21l-102.83 -897.64c-9.88,115.88 -70.28,699.05 -90.89,897.64 -77.26,539.02 -70.04,839.34 -76.31,1253.66l-269.27 0c-47.08,-236.06 -96.62,-539.86 -84.69,-726.45 11.31,-177.65 56.44,-378.47 71.17,-527.21 14.73,-148.77 -132.22,-1298.62 -21.89,-1535.18 79.42,-227.62 79.44,-227.62 79.42,-227.62z"/>
    <path class="fil7" d="M969.17 6617.01c5.82,-16.31 10.43,-28.97 15.52,-42.98l545.28 -30.32 486.85 110.89c-0.07,38.2 -0.86,78.22 -2.3,119.78 -62.81,37.79 -283.91,149 -676.52,114.3 -171.85,-15.21 -298.78,-59.63 -392.07,-109.61 0.22,-33.34 0.94,-65.27 2.23,-95.59 5.64,-26.58 12.57,-49.12 21,-66.46z"/>
    <path class="fil12 str0" d="M1854.87 3655.52c0,0 50.22,20.96 46.5,210.18 -0.92,45.93 -15.54,134.16 -28.73,202.35 25.44,107.19 65.6,131.78 56.56,154.01 -4.24,10.47 -25.58,19.95 -47.22,27.12 -12.46,59.18 -44.37,145.33 -91.88,265.92 -0.03,0 -116.13,2.73 -344.65,-99.27l409.42 -760.31z"/>
    <path class="fil4" d="M1816.82 3742.02c0,0 -108,132.59 -93.83,416.75l-58.59 5.87c0,0 14.1,-78.47 -13.04,-111.5l71.47 -340.59 93.99 29.46z"/>
    <path class="fil12 str0" d="M1289.83 4409.47c23.58,91.26 -11.76,220.15 -28.72,268.55l376.62 24.75 -18.7 -281.31c-0.7,-45.42 -53.09,-99.39 -51.48,-147.78l-277.71 135.8z"/>
    <path class="fil4" d="M1859.94 3685.05c7,-22.83 100.63,-74.68 -64.93,-130.52 -156.71,-52.89 -517.33,-116.89 -595.01,-7.74 -152.2,54.31 -187.28,243.39 -154.19,406.17 43.61,226.45 186.02,355.52 241.18,453.98 36.12,36.82 277.28,15.91 320.1,-193.4 11.8,-139.02 194,-372.87 252.84,-528.5z"/>
    <path class="fil7" d="M1239.7 4573.94l-91.78 191.05c0,0 94.89,110.33 604.44,25.63l-59.07 -144.06c0,0 -217.35,-122.89 -453.59,-72.62z"/>
    <path class="fil6" d="M932.56 6721.76c-31.27,-251.83 44.58,-601.65 38.76,-825.05 -5.8,-226.36 -117.07,-413.96 -129.17,-831.97 -3.74,-127.43 78.63,-417.3 554.83,-410.62 395.41,5.5 659.49,208.63 678.91,370.66 31.05,258.6 -38.85,451.3 -55.95,729.7 -14.8,240.59 12.88,694.51 26.51,967.28 -0.02,0 -601.17,267.67 -1113.9,0z"/>
    <path class="fil12 str0" d="M1978.4 4870.09c60.04,-9.4 141.33,255.23 231.92,507.71 14.94,41.66 30.45,82.89 45.36,122.69 43.46,88.76 184.25,297.92 272.93,427.01 105.15,-169.33 358.17,-379.26 358.17,-379.26l50.57 80.21c0,0 -250.76,529.18 -400.15,491.97l-1.89 2.39c0,0 -201.26,-89.71 -429.21,-333.35 -2.09,-2.2 -4.16,-4.44 -6.24,-6.72l-4.42 -4.76 0.06 -0.1c-216.78,-243.22 -368.58,-868.4 -117.1,-907.79z"/>
    <polygon class="fil7" points="1094.04,6564.08 1126.94,6851.06 1048.51,6825.42 "/>
    <polygon class="fil7" points="1848.91,6564.08 1879.98,6835.07 1797.48,6859.33 "/>
    <path class="fil3" d="M2114.1 9660.28l-518.19 0 0 -189.13c11.17,0.64 25.46,5.64 34.19,24.48 15.9,34.31 45.04,35.63 71.56,29 26.51,-6.62 -35.79,-53.01 0,-62.28 20.39,-5.28 56.26,-8.84 83.34,-10.94l1.43 19.72c0,0 203.19,79.93 269.25,97.31 66.04,17.35 58.41,91.85 58.41,91.85z"/>
    <path class="fil4" d="M1343.1 9586.28c0,0 -55.81,-116.78 -115.38,-134.14 0,0 -56.28,-13.14 -85.83,46.9 0,0 -67.54,24.86 -81.14,-30.95 0,0 -34.24,81.61 -24.39,195.11l366.3 0c0,0 15.48,-71.76 -59.56,-76.92z"/>
    <path class="fil4" d="M1319.86 3516.93l36.65 27.88c124.61,-84.94 331.11,-135.77 589.83,20 0,-0.04 -25.49,102.69 -182.07,131.65 -316,58.46 -441.02,69.69 -542.91,267.9 -8.07,145.68 116.98,476.9 81.66,482.94 -154.34,26.33 -322.38,-882.56 16.83,-930.37z"/>
    <path class="fil4" d="M1284.94 3531.42c-89.98,51.68 -111.83,70.38 -158.36,109.5 -101.17,-112.23 -58.52,-165.96 -58.52,-165.96l84.17 20.39c0,0 -86.71,-186.16 -20.42,-135.15 45.09,34.7 113.81,120.14 153.14,171.22z"/>
    <rect class="fil9" x="-0" y="9644.44" width="10000" height="355.56"/>
    <circle class="fil12" cx="2342.93" cy="2521.37" r="912.5"/>
    <path class="fil13" d="M2342.93 1592.2c256.57,0 488.87,104 657.02,272.15 168.15,168.15 272.15,400.44 272.15,657.02 0,256.57 -104,488.87 -272.15,657.02 -168.15,168.15 -400.44,272.15 -657.02,272.15 -256.57,0 -488.87,-104 -657.02,-272.15 -168.15,-168.15 -272.15,-400.44 -272.15,-657.02 0,-256.57 104,-488.87 272.15,-657.02 168.15,-168.15 400.44,-272.15 657.02,-272.15zm633.45 295.72c-162.11,-162.11 -386.07,-262.38 -633.45,-262.38 -247.38,0 -471.34,100.27 -633.45,262.38 -162.11,162.11 -262.38,386.07 -262.38,633.45 0,247.38 100.27,471.34 262.38,633.45 162.11,162.11 386.07,262.38 633.45,262.38 247.38,0 471.34,-100.27 633.45,-262.38 162.11,-162.11 262.38,-386.07 262.38,-633.45 0,-247.38 -100.27,-471.34 -262.38,-633.45z"/>
    <circle class="fil6" cx="2342.93" cy="2521.37" r="812.5"/>
    <rect class="fil12" x="2317.39" y="1757.71" width="51.06" height="95.46" rx="25.53" ry="25.53"/>
    <rect class="fil12" transform="matrix(1.02926 0.275789 -0.275789 1.02926 2515.91 1777.12)" width="47.92" height="89.58" rx="23.96" ry="23.96"/>
    <rect class="fil12" transform="matrix(0.922809 0.532784 -0.532784 0.922809 2702.64 1847.25)" width="47.92" height="89.58" rx="23.96" ry="23.96"/>
    <rect class="fil12" transform="matrix(0.753471 0.753471 -0.753471 0.753471 2864.86 1963.32)" width="47.92" height="89.58" rx="23.96" ry="23.96"/>
    <rect class="fil12" transform="matrix(0.532784 0.922809 -0.922809 0.532784 2991.51 2117.42)" width="47.92" height="89.58" rx="23.96" ry="23.96"/>
    <rect class="fil12" transform="matrix(0.275789 1.02926 -1.02926 0.275789 3073.96 2299.05)" width="47.92" height="89.58" rx="23.96" ry="23.96"/>
    <rect class="fil12" transform="matrix(2.81263E-14 1.06557 -1.06557 2.81263E-14 3106.59 2495.83)" width="47.92" height="89.58" rx="23.96" ry="23.96"/>
    <rect class="fil12" transform="matrix(-0.275789 1.02926 -1.02926 -0.275789 3087.17 2694.35)" width="47.92" height="89.58" rx="23.96" ry="23.96"/>
    <rect class="fil12" transform="matrix(-0.532784 0.922809 -0.922809 -0.532784 3017.04 2881.08)" width="47.92" height="89.58" rx="23.96" ry="23.96"/>
    <rect class="fil12" transform="matrix(-0.753471 0.753471 -0.753471 -0.753471 2900.97 3043.3)" width="47.92" height="89.58" rx="23.96" ry="23.96"/>
    <rect class="fil12" transform="matrix(-0.922809 0.532784 -0.532784 -0.922809 2746.87 3169.95)" width="47.92" height="89.58" rx="23.96" ry="23.96"/>
    <rect class="fil12" transform="matrix(-1.02926 0.275789 -0.275789 -1.02926 2565.24 3252.4)" width="47.92" height="89.58" rx="23.96" ry="23.96"/>
    <rect class="fil12" x="2317.4" y="3189.57" width="51.06" height="95.46" rx="25.53" ry="25.53"/>
    <rect class="fil12" transform="matrix(-1.02926 -0.275789 0.275789 -1.02926 2169.94 3265.61)" width="47.92" height="89.58" rx="23.96" ry="23.96"/>
    <rect class="fil12" transform="matrix(-0.922809 -0.532784 0.532784 -0.922809 1983.21 3195.48)" width="47.92" height="89.58" rx="23.96" ry="23.96"/>
    <rect class="fil12" transform="matrix(-0.753471 -0.753471 0.753471 -0.753471 1820.99 3079.41)" width="47.92" height="89.58" rx="23.96" ry="23.96"/>
    <rect class="fil12" transform="matrix(-0.532784 -0.922809 0.922809 -0.532784 1694.34 2925.31)" width="47.92" height="89.58" rx="23.96" ry="23.96"/>
    <rect class="fil12" transform="matrix(-0.275789 -1.02926 1.02926 -0.275789 1611.89 2743.68)" width="47.92" height="89.58" rx="23.96" ry="23.96"/>
    <rect class="fil12" transform="matrix(-8.43492E-14 -1.06557 1.06557 -8.43492E-14 1579.26 2546.9)" width="47.92" height="89.58" rx="23.96" ry="23.96"/>
    <rect class="fil12" transform="matrix(0.275789 -1.02926 1.02926 0.275789 1598.68 2348.38)" width="47.92" height="89.58" rx="23.96" ry="23.96"/>
    <rect class="fil12" transform="matrix(0.532784 -0.922809 0.922809 0.532784 1668.81 2161.65)" width="47.92" height="89.58" rx="23.96" ry="23.96"/>
    <rect class="fil12" transform="matrix(0.753471 -0.753471 0.753471 0.753471 1784.88 1999.43)" width="47.92" height="89.58" rx="23.96" ry="23.96"/>
    <rect class="fil12" transform="matrix(0.922809 -0.532784 0.532784 0.922809 1938.98 1872.78)" width="47.92" height="89.58" rx="23.96" ry="23.96"/>
    <rect class="fil12" transform="matrix(1.02926 -0.275789 0.275789 1.02926 2120.61 1790.34)" width="47.92" height="89.58" rx="23.96" ry="23.96"/>
    <circle class="fil12" cx="2342.93" cy="2521.37" r="85.47"/>
    <path class="fil12" d="M2319.61 2485.85l46.62 0 0 -480.62c0,-12.82 -10.49,-23.31 -23.3,-23.31l-0.01 0c-12.82,0 -23.31,10.49 -23.31,23.31l0 480.62z"/>
    <path class="fil12" d="M2380.87 2540.47l-40.37 23.31 240.31 416.22c6.41,11.1 20.74,14.94 31.84,8.54l0.01 -0c11.1,-6.41 14.94,-20.74 8.53,-31.84l-240.31 -416.22z"/>
    <rect class="fil6" x="3208.9" y="6370.6" width="4275" height="275" rx="66.67" ry="66.67"/>
   </g>
  </g>
 </g>
</svg>
